<svg width="49" height="60" viewBox="0 0 49 60" fill="none" xmlns="http://www.w3.org/2000/svg">
<path d="M2.80103 8.90954H46.199M18.3297 8.90954C18.3428 7.28371 18.9987 5.72894 20.1544 4.58391C21.3101 3.43888 22.8721 2.79639 24.5 2.79639C26.1279 2.79639 27.6899 3.43888 28.8456 4.58391C30.0014 5.72894 30.6572 7.28371 30.6704 8.90954M16.5014 23.8071L18.5359 48.2387M24.4998 23.8071V48.2387M32.4982 23.8071L30.4641 48.2387M30.4889 57.1999H18.5111C16.7387 57.2059 15.0215 56.5844 13.6643 55.4459C12.3071 54.3073 11.3977 52.7254 11.0974 50.9807L5.44153 17.3483H43.5585L37.9026 50.9807C37.6023 52.7253 36.6929 54.3072 35.3357 55.4458C33.9785 56.5843 32.2613 57.2058 30.4889 57.1999Z" stroke="#A31D1D" stroke-width="4" stroke-linecap="round" stroke-linejoin="round"/>
</svg>
