<svg width="45" height="45" viewBox="0 0 45 45" fill="none" xmlns="http://www.w3.org/2000/svg">
<path d="M43.87 1.13071C44.2285 1.48874 44.5128 1.91391 44.7068 2.38192C44.9008 2.84992 45.0007 3.35158 45.0007 3.85821C45.0007 4.36484 44.9008 4.86649 44.7068 5.3345C44.5128 5.80251 44.2285 6.22768 43.87 6.58571L24.78 25.6757L16.5975 28.4032L19.325 20.2207L38.415 1.13071C38.773 0.772257 39.1982 0.487894 39.6662 0.293878C40.1342 0.0998627 40.6359 0 41.1425 0C41.6491 0 42.1508 0.0998627 42.6188 0.293878C43.0868 0.487894 43.512 0.772257 43.87 1.13071ZM2.5 45.0007H40C40.663 45.0007 41.2989 44.7373 41.7678 44.2685C42.2366 43.7996 42.5 43.1637 42.5 42.5007V22.5007C42.5 21.8377 42.2366 21.2018 41.7678 20.7329C41.2989 20.2641 40.663 20.0007 40 20.0007C39.337 20.0007 38.7011 20.2641 38.2322 20.7329C37.7634 21.2018 37.5 21.8377 37.5 22.5007V40.0007H5V7.50071H22.5C23.163 7.50071 23.7989 7.23731 24.2678 6.76847C24.7366 6.29963 25 5.66375 25 5.00071C25 4.33767 24.7366 3.70178 24.2678 3.23294C23.7989 2.7641 23.163 2.50071 22.5 2.50071H2.5C1.83696 2.50071 1.20107 2.7641 0.732233 3.23294C0.263392 3.70178 0 4.33767 0 5.00071V42.5007C0 43.1637 0.263392 43.7996 0.732233 44.2685C1.20107 44.7373 1.83696 45.0007 2.5 45.0007Z" fill="#AAB99A"/>
</svg>
