<svg width="40" height="40" viewBox="0 0 40 40" fill="none" xmlns="http://www.w3.org/2000/svg">
<path d="M40 20C40 23.9556 38.827 27.8224 36.6294 31.1114C34.4318 34.4004 31.3082 36.9638 27.6537 38.4776C23.9992 39.9913 19.9778 40.3874 16.0982 39.6157C12.2186 38.844 8.65492 36.9392 5.85787 34.1421C3.06082 31.3451 1.15601 27.7814 0.384303 23.9018C-0.387401 20.0222 0.00866567 16.0009 1.52242 12.3463C3.03617 8.69181 5.59962 5.56823 8.8886 3.37061C12.1776 1.17298 16.0444 0 20 0C22.6264 0 25.2272 0.517315 27.6537 1.52241C30.0802 2.5275 32.285 4.00069 34.1421 5.85786C35.9993 7.71503 37.4725 9.91982 38.4776 12.3463C39.4827 14.7728 40 17.3736 40 20ZM30.9385 9.76885C30.9378 9.55667 30.8532 9.35336 30.7032 9.20333C30.5532 9.05329 30.3499 8.96871 30.1377 8.96804H9.76633C9.55394 8.96804 9.35026 9.05241 9.20008 9.20259C9.0499 9.35277 8.96552 9.55646 8.96552 9.76885V27.0986C8.99287 27.6041 9.19464 28.0844 9.53645 28.4577L11.5978 30.4787C11.9791 30.8144 12.4623 31.012 12.9696 31.0395H30.1377C30.3499 31.0389 30.5532 30.9543 30.7032 30.8042C30.8532 30.6542 30.9378 30.4509 30.9385 30.2387V9.76885ZM26.9016 17.5142C26.9009 17.726 26.8167 17.9289 26.6672 18.0788C26.5177 18.2288 26.3151 18.3137 26.1033 18.315H13.8007C13.5883 18.315 13.3846 18.2306 13.2344 18.0805C13.0843 17.9303 12.9999 17.7266 12.9999 17.5142V11.5145C12.9999 11.3021 13.0843 11.0984 13.2344 10.9482C13.3846 10.798 13.5883 10.7137 13.8007 10.7137H26.1033C26.3151 10.715 26.5177 10.7999 26.6672 10.9498C26.8167 11.0998 26.9009 11.3027 26.9016 11.5145V17.5142ZM25.9922 22.2837V28.7078C25.9915 28.92 25.9069 29.1233 25.7569 29.2734C25.6068 29.4234 25.4035 29.508 25.1914 29.5086H14.695C14.4832 29.5073 14.2806 29.4224 14.1311 29.2725C13.9816 29.1225 13.8973 28.9196 13.8967 28.7078V22.2837C13.8974 22.0722 13.9817 21.8695 14.1312 21.72C14.2808 21.5704 14.4835 21.4861 14.695 21.4854H25.1914C25.4029 21.4861 25.6055 21.5704 25.7551 21.72C25.9047 21.8695 25.9915 22.0722 25.9922 22.2837ZM18.0346 23.5114H15.8217V27.5306H18.0346V23.5114Z" fill="#D0DDD0"/>
</svg>
