<svg width="40" height="40" viewBox="0 0 40 40" fill="none" xmlns="http://www.w3.org/2000/svg">
<path d="M20 0C16.0444 0 12.1776 1.17298 8.8886 3.37061C5.59962 5.56823 3.03617 8.69181 1.52242 12.3463C0.00866568 16.0008 -0.387401 20.0222 0.384303 23.9018C1.15601 27.7814 3.06082 31.3451 5.85787 34.1421C8.65492 36.9392 12.2186 38.844 16.0982 39.6157C19.9778 40.3874 23.9992 39.9913 27.6537 38.4776C31.3082 36.9638 34.4318 34.4004 36.6294 31.1114C38.827 27.8224 40 23.9556 40 20C40 17.3736 39.4827 14.7728 38.4776 12.3463C37.4725 9.91982 35.9993 7.71503 34.1421 5.85786C32.285 4.00069 30.0802 2.5275 27.6537 1.52241C25.2272 0.517315 22.6264 0 20 0ZM22 30C22 30.5304 21.7893 31.0391 21.4142 31.4142C21.0391 31.7893 20.5304 32 20 32C19.4696 32 18.9609 31.7893 18.5858 31.4142C18.2107 31.0391 18 30.5304 18 30V18C18 17.4696 18.2107 16.9609 18.5858 16.5858C18.9609 16.2107 19.4696 16 20 16C20.5304 16 21.0391 16.2107 21.4142 16.5858C21.7893 16.9609 22 17.4696 22 18V30ZM20 12C19.4067 12 18.8266 11.824 18.3333 11.4944C17.8399 11.1648 17.4554 10.6962 17.2284 10.148C17.0013 9.59987 16.9419 8.99667 17.0576 8.41473C17.1734 7.83278 17.4591 7.29823 17.8787 6.87868C18.2982 6.45912 18.8328 6.1734 19.4147 6.05764C19.9967 5.94189 20.5999 6.0013 21.1481 6.22836C21.6962 6.45542 22.1648 6.83994 22.4944 7.33329C22.8241 7.82663 23 8.40665 23 9C23 9.79565 22.6839 10.5587 22.1213 11.1213C21.5587 11.6839 20.7957 12 20 12Z" fill="#D0DDD0"/>
</svg>
